<svg xmlns="http://www.w3.org/2000/svg" viewBox="0 0 64 64" width="64" height="64">
  <rect x="10" y="8" width="28" height="48" rx="2" fill="#2C5F7C"/>
  <rect x="40" y="20" width="14" height="36" rx="2" fill="#3a7594"/>
  <rect x="16" y="14" width="6" height="6" fill="#ffffff" opacity="0.9"/>
  <rect x="26" y="14" width="6" height="6" fill="#ffffff" opacity="0.9"/>
  <rect x="16" y="24" width="6" height="6" fill="#ffffff" opacity="0.9"/>
  <rect x="26" y="24" width="6" height="6" fill="#ffffff" opacity="0.9"/>
  <rect x="16" y="34" width="6" height="6" fill="#ffffff" opacity="0.9"/>
  <rect x="26" y="34" width="6" height="6" fill="#ffffff" opacity="0.9"/>
  <rect x="16" y="44" width="6" height="6" fill="#ffffff" opacity="0.9"/>
  <rect x="26" y="44" width="6" height="6" fill="#ffffff" opacity="0.9"/>
  <rect x="44" y="26" width="6" height="6" fill="#ffffff" opacity="0.9"/>
  <rect x="44" y="36" width="6" height="6" fill="#ffffff" opacity="0.9"/>
  <rect x="44" y="46" width="6" height="6" fill="#ffffff" opacity="0.9"/>
  <rect x="22" y="52" width="12" height="4" fill="#0A0A0A" opacity="0.85"/>
</svg>
